{"title":"Mental 2014 DVD9rip English Klam","uid":10942477,"size":1793863780,"categoryP":"video","categoryS":"movies","magnet":"?xt=urn:btih:4fc66ef5a4f4b0be0d1090875ac360d2130d506b&amp;dn=Mental+2014+DVD9rip+English+Klam&amp;tr=udp%3A%2F%2Ftracker.openbittorrent.com%3A80&amp;tr=udp%3A%2F%2Fopen.demonii.com%3A1337&amp;tr=udp%3A%2F%2Ftracker.coppersurfer.tk%3A6969&amp;tr=udp%3A%2F%2Fexodus.desync.com%3A6969","seeders":0,"leechers":1,"uploader":"Klambake","files":-1,"time":1409564618,"description":"With: Toni Collette, Liev Schreiber and Anthony LaPaglia\n\nNa de zenuwinzinking van zijn vrouw huurt een vader van vijf dochters impulsief de eigenzinnige liftster Shaz in om voor zijn kinderen te zorgen. De wilde en charismatische Shaz verandert de meisjes, die de lachertjes van het dorp zijn, in populaire meiden. Ze drukt met name een stempel op de 16-jarige Coral die nog nooit iemand ontmoet heeft die zo onverschrokken, stoer en roekeloos is als Chaz. Maar Chaz heeft een geheim, en wanneer Coral de ware reden van haar bezoek aan het dorp ontdekt moet ze een belangrijk besluit nemen.\n\nA charismatic, crazy hothead transforms a family's life when she becomes the nanny of five girls whose mother has cracked from her husband's political ambitions and his infidelity.\n &lt;a href=&quot;\nhttp://www.imdb.com/title/tt1655416&quot; rel=&quot;nofollow&quot; target=&quot;_NEW&quot;&gt;\nhttp://www.imdb.com/title/tt1655416&lt;/a&gt;\t\n\n--------------------- Dutch Friends 4ever ---------------------\n---------------------------------------------------------------\n- Bezoek ook eens mijn vrienden op: &lt;a href=&quot; http://www.Film-Test.nl&quot; rel=&quot;nofollow&quot; target=&quot;_NEW&quot;&gt; http://www.Film-Test.nl&lt;/a&gt; --\n----- voor mijn Nederlandse Sync. ondertitels ---- en meer ----\n------- http://www.Film-Test.nl ---- Over Films en meer -------\n---------------------------------------------------------------\n &lt;a href=&quot;\nhttp://i.imgur.com/UOJycoq.jpg&quot; rel=&quot;nofollow&quot; target=&quot;_NEW&quot;&gt;\nhttp://i.imgur.com/UOJycoq.jpg&lt;/a&gt; &lt;a href=&quot;\nhttp://i.imgur.com/TrZPFGn.jpg&quot; rel=&quot;nofollow&quot; target=&quot;_NEW&quot;&gt;\nhttp://i.imgur.com/TrZPFGn.jpg&lt;/a&gt; &lt;a href=&quot;\nhttp://i.imgur.com/FeXFQMI.jpg&quot; rel=&quot;nofollow&quot; target=&quot;_NEW&quot;&gt;\nhttp://i.imgur.com/FeXFQMI.jpg&lt;/a&gt;\n\nGeneral:\n\nComplete name                            : MentalMental.avi\nFormat                                   : AVI\nFormat/Info                              : Audio Video Interleave\nFile size                                : 1.67 GiB\nDuration                                 : 1h 50mn\nOverall bit rate                         : 2 163 Kbps\n\nVideo:\n\nFormat                                   : MPEG-4 Visual\nFormat profile                           : Simple@L3\nFormat settings, BVOP                    : No\nFormat settings, QPel                    : No\nFormat settings, GMC                     : No warppoints\nFormat settings, Matrix                  : Default (H.263)\nCodec ID                                 : XVID\nCodec ID/Hint                            : XviD\nDuration                                 : 1h 50mn\nBit rate                                 : 1 704 Kbps\nWidth                                    : 652 pixels\nHeight                                   : 352 pixels\nDisplay aspect ratio                     : 1.85:1\nFrame rate                               : 25.000 fps\nColor space                              : YUV\nChroma subsampling                       : 4:2:0\nBit depth                                : 8 bits\nScan type                                : Progressive\nCompression mode                         : Lossy\nBits/(Pixel*Frame)                       : 0.297\nStream size                              : 1.32 GiB (79%)\nWriting library                          : XviD 1.1.2 (UTC 2006-11-01)\n\nAudio:\n\nFormat                                   : AC-3\nFormat/Info                              : Audio Coding 3\nMode extension                           : CM (complete main)\nFormat settings, Endianness              : Big\nCodec ID                                 : 2000\nDuration                                 : 1h 50mn\nSource duration                          : 1h 50mn\nBit rate mode                            : Constant\nBit rate                                 : 448 Kbps\nChannel(s)                               : 6 channels\nChannel positions                        : Front: L C R, Side: L R, LFE\nSampling rate                            : 48.0 KHz\nBit depth                                : 16 bits\nCompression mode                         : Lossy\nStream size                              : 354 MiB (21%)\nAlignment                                : Aligned on interleaves\nInterleave, duration                     : 32 ms (0.80 video frame)\n\n\n","torrent":{"xt":"urn:btih:4fc66ef5a4f4b0be0d1090875ac360d2130d506b","amp;dn":"Mental+2014+DVD9rip+English+Klam","amp;tr":["udp%3A%2F%2Ftracker.openbittorrent.com%3A80","udp%3A%2F%2Fopen.demonii.com%3A1337","udp%3A%2F%2Ftracker.coppersurfer.tk%3A6969","udp%3A%2F%2Fexodus.desync.com%3A6969"],"infoHash":"4fc66ef5a4f4b0be0d1090875ac360d2130d506b","infoHashBuffer":{"type":"Buffer","data":[79,198,110,245,164,244,176,190,13,16,144,135,90,195,96,210,19,13,80,107]},"announce":[],"urlList":[]}}